<svg width="11" height="124" viewBox="0 0 11 124" fill="none" xmlns="http://www.w3.org/2000/svg">
<g clip-path="url(#clip0_6_1504)">
<path d="M6.43543 1.38609L5.93469 44.0271C5.76533 58.1751 5.60332 72.3232 5.43396 86.4712C5.33823 94.4616 5.12468 102.452 5.16886 110.443C5.16886 111.071 5.36768 112.033 5.94942 112.381C6.53116 112.73 6.77416 112.086 6.78889 111.586C6.99508 104.489 6.96562 97.3776 7.04662 90.2733C7.12762 83.169 7.20126 76.0571 7.28963 68.9452L7.783 26.486L8.0481 2.52217C8.0481 1.90111 7.84927 0.93923 7.2749 0.598405C6.70053 0.257579 6.44279 0.886212 6.44279 1.38609H6.43543Z" fill="black"/>
<path d="M8.82136 108.511C8.43108 112.813 7.13506 116.979 5.14684 120.781L6.46495 121.387C4.57983 117.009 3.22489 112.518 1.98042 107.913C1.8626 107.489 1.50177 106.542 0.920033 106.678C0.338296 106.815 0.52239 107.913 0.596028 108.292C1.57541 113.192 3.29853 118.016 5.25729 122.583C5.45612 123.038 6.14095 124.007 6.57541 123.189C8.76981 119.009 10.0585 114.419 10.5003 109.693C10.5592 109.049 10.2573 108.042 9.69765 107.686C9.08645 107.299 8.8729 108.019 8.82872 108.511H8.82136Z" fill="black"/>
</g>
<defs>
<clipPath id="clip0_6_1504">
<rect width="123" height="10" fill="white" transform="translate(10.5002 0.499939) rotate(90)"/>
</clipPath>
</defs>
</svg>
