<svg width="50" height="50" viewBox="0 0 50 50" fill="none" xmlns="http://www.w3.org/2000/svg">
<path d="M26.6173 3.18398C26.0818 3.14444 25.545 3.12464 25.0081 3.12461V0C25.6222 0.000299424 26.2361 0.0232288 26.8485 0.0687414L26.6173 3.18398ZM32.8794 4.59005C31.8777 4.20355 30.849 3.89129 29.8015 3.65579L30.4858 0.606174C31.6826 0.874891 32.8606 1.2311 34.0043 1.67479L32.8794 4.59005V4.59005ZM37.1603 6.80852C36.7135 6.51059 36.256 6.22918 35.7885 5.96488L37.329 3.24647C38.3974 3.85182 39.4199 4.53482 40.3882 5.28996L38.4664 7.75528C38.0428 7.42479 37.6071 7.11003 37.1603 6.81165V6.80852ZM42.8911 12.4016C42.273 11.5235 41.591 10.6922 40.8506 9.91439L43.113 7.7584C43.9567 8.64892 44.7379 9.60192 45.4472 10.6018L42.8911 12.4016V12.4016ZM45.2159 16.626C45.0108 16.1307 44.7878 15.6429 44.5472 15.1637L47.3377 13.7577C47.8895 14.8547 48.3595 15.9909 48.7438 17.1572L45.7753 18.1352C45.6074 17.6255 45.4208 17.1221 45.2159 16.626V16.626ZM46.8721 24.4594C46.8468 23.3856 46.7424 22.3152 46.5596 21.2567L49.6375 20.7255C49.8469 21.9316 49.9687 23.1565 50 24.3813L46.8752 24.4594H46.8721ZM46.4627 29.2651C46.5658 28.7339 46.6502 28.2058 46.7158 27.6715L49.8187 28.0559C49.6686 29.2749 49.4284 30.4812 49.1 31.6648L46.0878 30.8305C46.2315 30.315 46.3565 29.7931 46.4627 29.2651V29.2651ZM43.4879 36.6985C44.0629 35.7924 44.5691 34.8425 45.0066 33.8614L47.8626 35.1269C47.3627 36.2517 46.7846 37.3328 46.1284 38.3702L43.4879 36.6985ZM40.4757 40.4637C40.8569 40.0825 41.2225 39.6888 41.5693 39.2826L43.9379 41.323C43.5368 41.788 43.1188 42.2382 42.6849 42.6728L40.4757 40.4637V40.4637Z" fill="black"/>
<path d="M25.0079 3.12461C21.4109 3.12487 17.8695 4.01214 14.6974 5.70784C11.5252 7.40355 8.82019 9.85533 6.82194 12.846C4.82368 15.8368 3.59385 19.2741 3.24138 22.8536C2.88891 26.4331 3.42467 30.0442 4.80121 33.3672C6.17775 36.6902 8.35259 39.6225 11.1331 41.9043C13.9136 44.1861 17.2139 45.747 20.7418 46.4488C24.2696 47.1506 27.9161 46.9715 31.3583 45.9276C34.8004 44.8836 37.932 43.0069 40.4755 40.4637L42.6848 42.6728C39.7779 45.5811 36.1985 47.7276 32.2638 48.922C28.329 50.1164 24.1604 50.3219 20.1272 49.5203C16.0941 48.7187 12.3209 46.9347 9.14206 44.3264C5.9632 41.7181 3.4768 38.366 1.90317 34.5672C0.32953 30.7684 -0.28276 26.64 0.120547 22.548C0.523854 18.456 1.93031 14.5266 4.21529 11.108C6.50027 7.68946 9.59323 4.88723 13.2201 2.94964C16.847 1.01205 20.8959 -0.00108965 25.0079 8.79447e-07V3.12461Z" fill="black"/>
<path d="M23.4457 9.37381C23.8601 9.37381 24.2575 9.53841 24.5505 9.8314C24.8435 10.1244 25.0081 10.5218 25.0081 10.9361V27.2153L35.1573 33.0146C35.5067 33.2253 35.7597 33.5643 35.8624 33.9591C35.9651 34.3539 35.9092 34.7733 35.7068 35.1275C35.5044 35.4817 35.1715 35.7426 34.7792 35.8546C34.3869 35.9666 33.9663 35.9207 33.6074 35.7268L22.6707 29.4775C22.4316 29.341 22.2328 29.1436 22.0946 28.9055C21.9563 28.6673 21.8834 28.3968 21.8833 28.1215V10.9361C21.8833 10.5218 22.0479 10.1244 22.3409 9.8314C22.6339 9.53841 23.0313 9.37381 23.4457 9.37381V9.37381Z" fill="black"/>
</svg>
