<svg width="100" height="100" viewBox="0 0 100 100" fill="none" xmlns="http://www.w3.org/2000/svg">
<path d="M12.5 34.4313V34.375C12.4999 28.8191 14.1454 23.3877 17.2287 18.7659C20.3121 14.1442 24.6953 10.5392 29.8252 8.40576C34.9552 6.27235 40.6021 5.7061 46.0535 6.77846C51.5049 7.85082 56.5166 10.5137 60.4563 14.4313C63.556 12.9013 67.0183 12.2581 70.4607 12.5726C73.9031 12.887 77.1916 14.147 79.9627 16.2133C82.7339 18.2796 84.88 21.0717 86.1638 24.2812C87.4476 27.4907 87.8192 30.9926 87.2375 34.4C88.0927 34.4794 88.9224 34.7342 89.6748 35.1485C90.4271 35.5628 91.086 36.1277 91.6103 36.808C92.1346 37.4883 92.5131 38.2694 92.7221 39.1025C92.9311 39.9356 92.9661 40.8028 92.825 41.65C90 58.6438 83.0125 69.4 71.875 73.925V78.125C71.875 80.6114 70.8873 82.996 69.1291 84.7541C67.371 86.5123 64.9864 87.5 62.5 87.5H37.5C35.0136 87.5 32.629 86.5123 30.8709 84.7541C29.1127 82.996 28.125 80.6114 28.125 78.125V73.925C16.9875 69.4 10 58.6438 7.175 41.65C7.03866 40.8253 7.06915 39.9816 7.26465 39.1689C7.46016 38.3561 7.81672 37.5909 8.31322 36.9184C8.80972 36.2459 9.43608 35.6798 10.1552 35.2537C10.8744 34.8276 11.6717 34.55 12.5 34.4375V34.4313ZM18.75 34.375H25C25 30.231 26.6462 26.2567 29.5765 23.3265C32.5067 20.3962 36.481 18.75 40.625 18.75C44.769 18.75 48.7433 20.3962 51.6735 23.3265C54.6038 26.2567 56.25 30.231 56.25 34.375H62.5C62.5 28.5734 60.1953 23.0094 56.093 18.907C51.9906 14.8047 46.4266 12.5 40.625 12.5C34.8234 12.5 29.2594 14.8047 25.157 18.907C21.0547 23.0094 18.75 28.5734 18.75 34.375V34.375ZM31.25 34.375H50C50 31.8886 49.0123 29.504 47.2541 27.7459C45.496 25.9877 43.1114 25 40.625 25C38.1386 25 35.754 25.9877 33.9959 27.7459C32.2377 29.504 31.25 31.8886 31.25 34.375ZM74.1625 34.375H80.8563C81.3281 32.528 81.3721 30.5976 80.9849 28.7309C80.5977 26.8643 79.7895 25.1107 78.6219 23.6037C77.4543 22.0968 75.9581 20.8762 74.2473 20.0351C72.5366 19.1939 70.6564 18.7544 68.75 18.75C67.25 18.75 65.825 19.0125 64.5 19.4938C65.6062 21.2688 66.5188 23.1813 67.2188 25.1875C68.4092 24.8923 69.6601 24.953 70.8162 25.3623C71.9724 25.7716 72.9829 26.5114 73.7224 27.4899C74.4619 28.4683 74.8978 29.6424 74.9761 30.8664C75.0543 32.0903 74.7714 33.3104 74.1625 34.375V34.375ZM65.625 75H34.375V78.125C34.375 78.9538 34.7042 79.7487 35.2903 80.3347C35.8763 80.9208 36.6712 81.25 37.5 81.25H62.5C63.3288 81.25 64.1237 80.9208 64.7097 80.3347C65.2958 79.7487 65.625 78.9538 65.625 78.125V75ZM32.175 68.75H67.825C77.7375 65.5625 84.0125 56.55 86.6625 40.625H13.3375C15.9875 56.55 22.2625 65.5625 32.175 68.75Z" fill="black"/>
</svg>
